<svg xmlns="http://www.w3.org/2000/svg" viewBox="0 0 24 24" fill="#1DA1F2">
  <path d="M23.954 4.569c-.885.39-1.83.654-2.825.775 1.014-.611 1.794-1.574 2.163-2.723-.951.555-2.005.959-3.127 1.184-.897-.955-2.178-1.555-3.594-1.555-2.72 0-4.927 2.205-4.927 4.917 0 .39.045.765.127 1.124-4.09-.205-7.719-2.165-10.148-5.144-.424.722-.666 1.561-.666 2.476 0 1.71.87 3.213 2.188 4.096-.807-.026-1.566-.248-2.228-.616v.061c0 2.386 1.693 4.374 3.946 4.827-.413.111-.849.171-1.296.171-.314 0-.615-.03-.916-.086.631 1.953 2.445 3.377 4.604 3.418-1.68 1.319-3.809 2.105-6.102 2.105-.39 0-.779-.023-1.17-.067C2.29 19.434 5.027 20 7.92 20 17.897 20 23.205 12.88 23.205 7.548c0-.175-.004-.349-.012-.522.847-.612 1.577-1.373 2.16-2.243z"/>
</svg>
